<svg width="51" height="38" viewBox="0 0 51 38" fill="none" xmlns="http://www.w3.org/2000/svg">
<g clip-path="url(#clip0_17_2)">
<path d="M4.79297 16.793C3.57227 18.0137 3.57227 19.9961 4.79297 21.2168L20.418 36.8418C21.6387 38.0625 23.6211 38.0625 24.8418 36.8418C26.0625 35.6211 26.0625 33.6387 24.8418 32.418L14.5391 22.125H44.5C46.2285 22.125 47.625 20.7285 47.625 19C47.625 17.2715 46.2285 15.875 44.5 15.875L14.5391 15.875L24.832 5.58203C26.0527 4.36133 26.0527 2.3789 24.832 1.1582C23.6113 -0.0625024 21.6289 -0.0625024 20.4082 1.1582L4.7832 16.7832L4.79297 16.793Z" fill="white"/>
</g>
<defs>
<clipPath id="clip0_17_2">
<rect width="37.5" height="50" fill="white" transform="matrix(0 -1 1 0 0.75 37.75)"/>
</clipPath>
</defs>
</svg>
